<?xml version="1.0" encoding="UTF-8" standalone="no"?>
<svg
   xmlns:dc="http://purl.org/dc/elements/1.1/"
   xmlns:cc="http://creativecommons.org/ns#"
   xmlns:rdf="http://www.w3.org/1999/02/22-rdf-syntax-ns#"
   xmlns:svg="http://www.w3.org/2000/svg"
   xmlns="http://www.w3.org/2000/svg"
   xmlns:xlink="http://www.w3.org/1999/xlink"
   xmlns:sodipodi="http://sodipodi.sourceforge.net/DTD/sodipodi-0.dtd"
   xmlns:inkscape="http://www.inkscape.org/namespaces/inkscape"
   width="110.421"
   height="109.846"
   id="svg2169"
   overflow="hidden"
   version="1.1"
   sodipodi:docname="python_background.svg"
   inkscape:version="0.92.4 (5da689c313, 2019-01-14)">
  <metadata
     id="metadata6132">
    <rdf:RDF>
      <cc:Work
         rdf:about="">
        <dc:format>image/svg+xml</dc:format>
        <dc:type
           rdf:resource="http://purl.org/dc/dcmitype/StillImage" />
      </cc:Work>
    </rdf:RDF>
  </metadata>
  <sodipodi:namedview
     pagecolor="#ffffff"
     bordercolor="#666666"
     borderopacity="1"
     objecttolerance="10"
     gridtolerance="10"
     guidetolerance="10"
     inkscape:pageopacity="0"
     inkscape:pageshadow="2"
     inkscape:window-width="1920"
     inkscape:window-height="1051"
     id="namedview6130"
     showgrid="false"
     inkscape:zoom="2.1484624"
     inkscape:cx="55.210499"
     inkscape:cy="54.923"
     inkscape:window-x="-9"
     inkscape:window-y="-9"
     inkscape:window-maximized="1"
     inkscape:current-layer="svg2169" />
  <defs
     id="defs2171">
    <linearGradient
       id="linearGradient11301">
      <stop
         offset="0"
         stop-color="#FFE052"
         id="stop6112" />
      <stop
         offset="1"
         stop-color="#FFC331"
         id="stop6114" />
    </linearGradient>
    <linearGradient
       x1="89.1367"
       y1="111.921"
       x2="147.777"
       y2="168.101"
       gradientUnits="userSpaceOnUse"
       xlink:href="#linearGradient11301"
       id="linearGradient11307" />
    <linearGradient
       id="linearGradient9515">
      <stop
         offset="0"
         stop-color="#387EB8"
         id="stop6118" />
      <stop
         offset="1"
         stop-color="#366994"
         id="stop6120" />
    </linearGradient>
    <linearGradient
       x1="55.5492"
       y1="77.0703"
       x2="110.149"
       y2="131.853"
       gradientUnits="userSpaceOnUse"
       xlink:href="#linearGradient9515"
       id="linearGradient9521" />
  </defs>
  <g
     id="layer1"
     transform="translate(-473.361,-251.725)"
     style="opacity:0.237">
    <g
       id="g1894"
       transform="translate(428.423,184.256)"
       style="">
      <path
         d="m 99.75,67.4688 c -28.0317,0 -26.2812,12.1562 -26.2812,12.1562 L 73.5,92.2188 h 26.75 V 96 H 62.875 c 0,0 -17.9375,-2.0343 -17.9375,26.25 0,28.284 15.6563,27.281 15.6563,27.281 h 9.3437 v -13.125 c 0,0 -0.5037,-15.656 15.4063,-15.656 15.9102,0 26.5312,0 26.5312,0 0,0 14.906,0.241 14.906,-14.406 0,-14.6475 0,-24.219 0,-24.219 0,0 2.263,-14.6562 -27.031,-14.6562 z M 85,75.9375 c 2.6614,0 4.8125,2.1511 4.8125,4.8125 0,2.6614 -2.1511,4.8125 -4.8125,4.8125 -2.6614,0 -4.8125,-2.1511 -4.8125,-4.8125 0,-2.6614 2.1511,-4.8125 4.8125,-4.8125 z"
         id="path8615"
         inkscape:connector-curvature="0"
         style="color:#000000;fill:url(#linearGradient9521)" />
      <path
         d="m 100.546,177.315 c 28.032,0 26.281,-12.156 26.281,-12.156 l -0.031,-12.594 h -26.75 v -3.781 h 37.375 c 0,0 17.938,2.034 17.938,-26.25 0,-28.2847 -15.657,-27.2817 -15.657,-27.2817 h -9.343 v 13.1247 c 0,0 0.503,15.657 -15.407,15.657 -15.9096,0 -26.5309,0 -26.5309,0 0,0 -14.9063,-0.241 -14.9063,14.406 0,14.647 0,24.219 0,24.219 0,0 -2.2631,14.656 27.0312,14.656 z m 14.75,-8.469 c -2.661,0 -4.812,-2.151 -4.812,-4.812 0,-2.662 2.151,-4.813 4.812,-4.813 2.662,0 4.813,2.151 4.813,4.813 0,2.661 -2.151,4.812 -4.813,4.812 z"
         id="path8620"
         inkscape:connector-curvature="0"
         style="color:#000000;fill:url(#linearGradient11307)" />
    </g>
  </g>
</svg>
