<?xml version="1.0" encoding="UTF-8" standalone="no"?>
<!-- Created with Inkscape (http://www.inkscape.org/) -->

<svg
   xmlns:dc="http://purl.org/dc/elements/1.1/"
   xmlns:cc="http://creativecommons.org/ns#"
   xmlns:rdf="http://www.w3.org/1999/02/22-rdf-syntax-ns#"
   xmlns:svg="http://www.w3.org/2000/svg"
   xmlns="http://www.w3.org/2000/svg"
   xmlns:sodipodi="http://sodipodi.sourceforge.net/DTD/sodipodi-0.dtd"
   xmlns:inkscape="http://www.inkscape.org/namespaces/inkscape"
   width="273.16702mm"
   height="267.19315mm"
   viewBox="0 0 273.16702 267.19315"
   version="1.1"
   id="svg8"
   inkscape:version="0.92.4 (5da689c313, 2019-01-14)"
   sodipodi:docname="python_extra.svg">
  <defs
     id="defs2">
    <marker
       inkscape:stockid="Arrow2Lend"
       orient="auto"
       refY="0"
       refX="0"
       id="Arrow2Lend"
       style="overflow:visible"
       inkscape:isstock="true">
      <path
         id="path844"
         style="fill:#000000;fill-opacity:1;fill-rule:evenodd;stroke:#000000;stroke-width:0.625;stroke-linejoin:round;stroke-opacity:1"
         d="M 8.7185878,4.0337352 -2.2072895,0.01601326 8.7185884,-4.0017078 c -1.7454984,2.3720609 -1.7354408,5.6174519 -6e-7,8.035443 z"
         transform="matrix(-1.1,0,0,-1.1,-1.1,0)"
         inkscape:connector-curvature="0" />
    </marker>
  </defs>
  <sodipodi:namedview
     id="base"
     pagecolor="#ffffff"
     bordercolor="#666666"
     borderopacity="1.0"
     inkscape:pageopacity="0.0"
     inkscape:pageshadow="2"
     inkscape:zoom="0.35"
     inkscape:cx="292.07506"
     inkscape:cy="162.76576"
     inkscape:document-units="mm"
     inkscape:current-layer="layer1"
     showgrid="false"
     fit-margin-top="0"
     fit-margin-left="0"
     fit-margin-right="0"
     fit-margin-bottom="0"
     inkscape:window-width="1842"
     inkscape:window-height="1051"
     inkscape:window-x="69"
     inkscape:window-y="1491"
     inkscape:window-maximized="1" />
  <metadata
     id="metadata5">
    <rdf:RDF>
      <cc:Work
         rdf:about="">
        <dc:format>image/svg+xml</dc:format>
        <dc:type
           rdf:resource="http://purl.org/dc/dcmitype/StillImage" />
        <dc:title />
      </cc:Work>
    </rdf:RDF>
  </metadata>
  <g
     inkscape:label="Layer 1"
     inkscape:groupmode="layer"
     id="layer1"
     transform="translate(220.53117,75.294695)">
    <path
       style="fill:none;stroke:#000000;stroke-width:3;stroke-linecap:butt;stroke-linejoin:miter;stroke-miterlimit:4;stroke-dasharray:none;stroke-opacity:1;marker-end:url(#Arrow2Lend)"
       d="M -14.363095,-74.928564 C -42.333331,36.19643 -53.672618,81.553573 -53.672618,81.553573"
       id="path821"
       inkscape:connector-curvature="0"
       sodipodi:nodetypes="cc" />
    <g
       aria-label="Everviz"
       style="font-style:normal;font-variant:normal;font-weight:normal;font-stretch:normal;font-size:21.16666603px;line-height:1.25;font-family:'Equinor Beta';-inkscape-font-specification:'Equinor Beta';letter-spacing:0px;word-spacing:0px;fill:#000000;fill-opacity:1;stroke:none;stroke-width:0.26458332"
       id="text1227">
      <path
         d="m -178.09936,79.061951 v 3.259667 h 4.99534 q 0.1905,0 0.29633,0.105833 0.10583,0.105834 0.10583,0.275167 v 1.735666 q 0,0.169334 -0.10583,0.275167 -0.10583,0.105833 -0.29633,0.105833 h -4.99534 v 4.064 h 6.6675 q 0.1905,0 0.29634,0.105834 0.10583,0.105833 0.10583,0.275166 v 1.735667 q 0,0.169333 -0.10583,0.275167 -0.10584,0.105833 -0.29634,0.105833 h -8.99583 q -0.1905,0 -0.29633,-0.105833 -0.10584,-0.105834 -0.10584,-0.275167 V 76.945285 q 0,-0.169334 0.10584,-0.275167 0.10583,-0.105833 0.29633,-0.105833 h 8.99583 q 0.1905,0 0.29634,0.105833 0.10583,0.105833 0.10583,0.275167 v 1.735666 q 0,0.169334 -0.10583,0.275167 -0.10584,0.105833 -0.29634,0.105833 z"
         style="font-style:normal;font-variant:normal;font-weight:normal;font-stretch:normal;font-size:21.16666603px;font-family:'Equinor Beta';-inkscape-font-specification:'Equinor Beta';stroke-width:0.26458332"
         id="path6592"
         inkscape:connector-curvature="0" />
      <path
         d="m -165.67816,91.380951 q -0.3175,0 -0.4445,-0.296333 l -3.937,-9.419167 -0.0423,-0.169333 q 0,-0.275167 0.33867,-0.275167 h 1.905 q 0.33867,0 0.46567,0.3175 l 2.30716,5.799667 2.32834,-5.799667 q 0.127,-0.3175 0.4445,-0.3175 h 1.905 q 0.33866,0 0.33866,0.254 0,0.0635 -0.0423,0.1905 l -3.91583,9.419167 q -0.127,0.296333 -0.46567,0.296333 z"
         style="font-style:normal;font-variant:normal;font-weight:normal;font-stretch:normal;font-size:21.16666603px;font-family:'Equinor Beta';-inkscape-font-specification:'Equinor Beta';stroke-width:0.26458332"
         id="path6594"
         inkscape:connector-curvature="0" />
      <path
         d="m -153.99019,80.966951 q 1.43933,0 2.51883,0.677334 1.0795,0.656166 1.651,1.778 0.59267,1.100666 0.59267,2.370666 v 0.889 q 0,0.381 -0.40217,0.381 h -7.15433 q 0.21166,1.016 0.97366,1.651 0.78317,0.635 1.98967,0.635 1.48167,0 2.8575,-0.867833 0.127,-0.0635 0.23283,-0.0635 0.21167,0 0.29634,0.211666 l 0.67733,1.227667 q 0.0635,0.127 0.0635,0.254 0,0.148167 -0.127,0.254 -1.67217,1.27 -4.02167,1.27 -1.651,0 -2.87866,-0.677333 -1.22767,-0.677334 -1.88384,-1.862667 -0.635,-1.2065 -0.635,-2.7305 0,-1.608667 0.6985,-2.836333 0.6985,-1.227667 1.88384,-1.883833 1.2065,-0.677334 2.667,-0.677334 z m 2.413,4.2545 q -0.127,-0.846667 -0.74084,-1.397 -0.61383,-0.5715 -1.67216,-0.5715 -1.03717,0 -1.75684,0.529167 -0.71966,0.508 -0.97366,1.439333 z"
         style="font-style:normal;font-variant:normal;font-weight:normal;font-stretch:normal;font-size:21.16666603px;font-family:'Equinor Beta';-inkscape-font-specification:'Equinor Beta';stroke-width:0.26458332"
         id="path6596"
         inkscape:connector-curvature="0" />
      <path
         d="m -139.52079,82.660285 q 0.0423,0.127 0.0423,0.1905 0,0.211666 -0.254,0.3175 l -4.953,2.031999 v 5.799667 q 0,0.381 -0.381,0.381 h -1.7145 q -0.1905,0 -0.29633,-0.105833 -0.10584,-0.105834 -0.10584,-0.275167 v -8.784166 q 0,-0.338667 0.3175,-0.465667 l 1.73567,-0.613833 q 0.127,-0.04233 0.16933,-0.04233 0.127,0 0.1905,0.105834 0.0847,0.08467 0.0847,0.254 v 1.375833 l 4.08517,-1.7145 q 0.127,-0.04233 0.1905,-0.04233 0.21166,0 0.33866,0.254 z"
         style="font-style:normal;font-variant:normal;font-weight:normal;font-stretch:normal;font-size:21.16666603px;font-family:'Equinor Beta';-inkscape-font-specification:'Equinor Beta';stroke-width:0.26458332"
         id="path6598"
         inkscape:connector-curvature="0" />
      <path
         d="m -133.88682,91.380951 q -0.3175,0 -0.4445,-0.296333 l -3.937,-9.419167 -0.0423,-0.169333 q 0,-0.275167 0.33866,-0.275167 h 1.905 q 0.33867,0 0.46567,0.3175 l 2.30717,5.799667 2.32833,-5.799667 q 0.127,-0.3175 0.4445,-0.3175 h 1.905 q 0.33866,0 0.33866,0.254 0,0.0635 -0.0423,0.1905 l -3.91583,9.419167 q -0.127,0.296333 -0.46567,0.296333 z"
         style="font-style:normal;font-variant:normal;font-weight:normal;font-stretch:normal;font-size:21.16666603px;font-family:'Equinor Beta';-inkscape-font-specification:'Equinor Beta';stroke-width:0.26458332"
         id="path6600"
         inkscape:connector-curvature="0" />
      <path
         d="m -126.21225,80.501285 q -0.0635,0.02117 -0.14817,0.02117 -0.14817,0 -0.23283,-0.08467 -0.0847,-0.105834 -0.0847,-0.254 v -1.883834 q 0,-0.3175 0.3175,-0.4445 l 1.92617,-0.677333 q 0.127,-0.04233 0.16933,-0.04233 0.127,0 0.1905,0.105833 0.0847,0.08467 0.0847,0.254 v 1.926167 q 0,0.338666 -0.3175,0.4445 z m 0.0212,10.879666 q -0.16933,0 -0.27516,-0.105833 -0.10584,-0.105834 -0.10584,-0.275167 v -8.8265 q 0,-0.3175 0.3175,-0.4445 l 1.73567,-0.592666 q 0.127,-0.04233 0.14817,-0.04233 0.14816,0 0.21166,0.105834 0.0847,0.08467 0.0847,0.254 v 9.546166 q 0,0.169333 -0.10583,0.275167 -0.10584,0.105833 -0.29634,0.105833 z"
         style="font-style:normal;font-variant:normal;font-weight:normal;font-stretch:normal;font-size:21.16666603px;font-family:'Equinor Beta';-inkscape-font-specification:'Equinor Beta';stroke-width:0.26458332"
         id="path6602"
         inkscape:connector-curvature="0" />
      <path
         d="m -121.84398,91.380951 q -0.1905,0 -0.29633,-0.105833 -0.10584,-0.105834 -0.10584,-0.275167 v -1.185333 q 0,-0.296334 0.16934,-0.486834 l 4.40266,-5.863166 h -3.72533 q -0.381,0 -0.381,-0.381 v -1.481667 q 0,-0.169333 0.10583,-0.275166 0.10584,-0.105834 0.27517,-0.105834 h 6.62516 q 0.381,0 0.381,0.381 v 1.185334 q 0,0.275166 -0.14816,0.486833 l -4.445,5.863166 h 4.61433 q 0.40217,0 0.40217,0.381 v 1.481667 q 0,0.169333 -0.10584,0.275167 -0.10583,0.105833 -0.29633,0.105833 z"
         style="font-style:normal;font-variant:normal;font-weight:normal;font-stretch:normal;font-size:21.16666603px;font-family:'Equinor Beta';-inkscape-font-specification:'Equinor Beta';stroke-width:0.26458332"
         id="path6604"
         inkscape:connector-curvature="0" />
    </g>
    <g
       aria-label="ERTViz"
       style="font-style:normal;font-variant:normal;font-weight:normal;font-stretch:normal;font-size:21.16666603px;line-height:1.25;font-family:'Equinor Beta';-inkscape-font-specification:'Equinor Beta';letter-spacing:0px;word-spacing:0px;fill:#000000;fill-opacity:1;stroke:none;stroke-width:0.26458332"
       id="text1227-2">
      <path
         d="m -8.0208687,91.634957 v 3.259667 h 4.9953332 q 0.1905,0 0.2963333,0.105833 0.1058333,0.105833 0.1058333,0.275167 v 1.735666 q 0,0.169333 -0.1058333,0.275167 -0.1058333,0.105833 -0.2963333,0.105833 h -4.9953332 v 4.064 h 6.6674998 q 0.1905,0 0.2963333,0.10583 0.10583337,0.10584 0.10583337,0.27517 v 1.73567 q 0,0.16933 -0.10583337,0.27516 -0.1058333,0.10584 -0.2963333,0.10584 h -8.9958331 q -0.1905,0 -0.296333,-0.10584 -0.105834,-0.10583 -0.105834,-0.27516 V 89.51829 q 0,-0.169333 0.105834,-0.275166 0.105833,-0.105834 0.296333,-0.105834 h 8.9958331 q 0.1905,0 0.2963333,0.105834 0.10583337,0.105833 0.10583337,0.275166 v 1.735667 q 0,0.169333 -0.10583337,0.275167 -0.1058333,0.105833 -0.2963333,0.105833 z"
         style="font-style:normal;font-variant:normal;font-weight:normal;font-stretch:normal;font-size:21.16666603px;font-family:'Equinor Beta';-inkscape-font-specification:'Equinor Beta';stroke-width:0.26458332"
         id="path6579"
         inkscape:connector-curvature="0" />
      <path
         d="m 1.6810715,103.95396 q -0.1905,0 -0.2963333,-0.10584 -0.1058334,-0.10583 -0.1058334,-0.27516 V 89.51829 q 0,-0.169333 0.1058334,-0.275166 Q 1.4905715,89.13729 1.6810715,89.13729 H 7.036238 q 1.5874999,0 2.6246666,0.613834 1.0371664,0.592666 1.5028334,1.5875 0.486833,0.994833 0.486833,2.159 0,1.354666 -0.656166,2.497666 -0.635,1.143 -1.9261671,1.651 l 2.6035001,5.86317 q 0.04233,0.127 0.04233,0.1905 0,0.254 -0.338666,0.254 H 9.2799046 q -0.3386667,0 -0.4656667,-0.29634 L 6.3165713,98.006123 H 4.0094047 v 5.566837 q 0,0.381 -0.3809999,0.381 z m 5.0164998,-8.40317 q 1.1218333,0 1.6721667,-0.529166 0.5503333,-0.550334 0.5503333,-1.4605 0,-0.910167 -0.5503333,-1.439334 Q 7.8194046,91.592624 6.6975713,91.592624 H 4.0094047 v 3.958166 z"
         style="font-style:normal;font-variant:normal;font-weight:normal;font-stretch:normal;font-size:21.16666603px;font-family:'Equinor Beta';-inkscape-font-specification:'Equinor Beta';stroke-width:0.26458332"
         id="path6581"
         inkscape:connector-curvature="0" />
      <path
         d="m 17.485295,103.95396 q -0.381,0 -0.381,-0.381 V 91.634957 h -3.429 q -0.1905,0 -0.296333,-0.105833 -0.105833,-0.105834 -0.105833,-0.275167 V 89.51829 q 0,-0.169333 0.105833,-0.275166 0.105833,-0.105834 0.296333,-0.105834 h 9.567334 q 0.1905,0 0.296333,0.105834 0.105833,0.105833 0.105833,0.275166 v 1.735667 q 0,0.169333 -0.105833,0.275167 -0.105833,0.105833 -0.296333,0.105833 h -3.429 v 11.938003 q 0,0.381 -0.381,0.381 z"
         style="font-style:normal;font-variant:normal;font-weight:normal;font-stretch:normal;font-size:21.16666603px;font-family:'Equinor Beta';-inkscape-font-specification:'Equinor Beta';stroke-width:0.26458332"
         id="path6583"
         inkscape:connector-curvature="0" />
      <path
         d="m 30.622189,103.95396 q -0.338667,0 -0.4445,-0.3175 L 24.991855,89.58179 q -0.04233,-0.127 -0.04233,-0.169333 0,-0.127 0.08467,-0.1905 0.105833,-0.08467 0.275166,-0.08467 h 2.116667 q 0.338667,0 0.4445,0.3175 l 3.704167,10.414 3.704166,-10.414 q 0.105833,-0.3175 0.4445,-0.3175 h 2.116667 q 0.211666,0 0.296333,0.127 0.105833,0.105834 0.04233,0.3175 l -5.207,14.054673 q -0.08467,0.3175 -0.4445,0.3175 z"
         style="font-style:normal;font-variant:normal;font-weight:normal;font-stretch:normal;font-size:21.16666603px;font-family:'Equinor Beta';-inkscape-font-specification:'Equinor Beta';stroke-width:0.26458332"
         id="path6585"
         inkscape:connector-curvature="0" />
      <path
         d="m 40.393581,93.07429 q -0.0635,0.02117 -0.148167,0.02117 -0.148167,0 -0.232833,-0.08467 -0.08467,-0.105833 -0.08467,-0.254 v -1.883833 q 0,-0.3175 0.3175,-0.4445 l 1.926167,-0.677333 q 0.127,-0.04233 0.169333,-0.04233 0.127,0 0.1905,0.105834 0.08467,0.08467 0.08467,0.254 v 1.926166 q 0,0.338667 -0.3175,0.4445 z m 0.02117,10.87967 q -0.169333,0 -0.275166,-0.10584 -0.105834,-0.10583 -0.105834,-0.27516 v -8.826503 q 0,-0.3175 0.3175,-0.4445 l 1.735667,-0.592667 q 0.127,-0.04233 0.148167,-0.04233 0.148166,0 0.211666,0.105833 0.08467,0.08467 0.08467,0.254 v 9.546167 q 0,0.16933 -0.105833,0.27516 -0.105834,0.10584 -0.296334,0.10584 z"
         style="font-style:normal;font-variant:normal;font-weight:normal;font-stretch:normal;font-size:21.16666603px;font-family:'Equinor Beta';-inkscape-font-specification:'Equinor Beta';stroke-width:0.26458332"
         id="path6587"
         inkscape:connector-curvature="0" />
      <path
         d="m 44.761851,103.95396 q -0.1905,0 -0.296333,-0.10584 -0.105833,-0.10583 -0.105833,-0.27516 v -1.18534 q 0,-0.29633 0.169333,-0.48683 l 4.402667,-5.863166 h -3.725334 q -0.381,0 -0.381,-0.381 v -1.481667 q 0,-0.169333 0.105834,-0.275167 0.105833,-0.105833 0.275166,-0.105833 h 6.625167 q 0.381,0 0.381,0.381 v 1.185333 q 0,0.275167 -0.148167,0.486834 l -4.445,5.863166 h 4.614334 q 0.402166,0 0.402166,0.381 v 1.48167 q 0,0.16933 -0.105833,0.27516 -0.105833,0.10584 -0.296333,0.10584 z"
         style="font-style:normal;font-variant:normal;font-weight:normal;font-stretch:normal;font-size:21.16666603px;font-family:'Equinor Beta';-inkscape-font-specification:'Equinor Beta';stroke-width:0.26458332"
         id="path6589"
         inkscape:connector-curvature="0" />
    </g>
    <g
       aria-label="Custom asset plugins"
       style="font-style:normal;font-variant:normal;font-weight:normal;font-stretch:normal;font-size:21.16666603px;line-height:1.25;font-family:'Equinor Beta';-inkscape-font-specification:'Equinor Beta';letter-spacing:0px;word-spacing:0px;fill:#000000;fill-opacity:1;stroke:none;stroke-width:0.26458332"
       id="text1227-1">
      <path
         d="m -213.12284,142.00557 q -2.11666,0 -3.81,-0.9525 -1.69333,-0.9525 -2.64583,-2.68816 -0.9525,-1.75684 -0.9525,-4.02167 0,-2.26483 0.9525,-4.0005 0.9525,-1.75683 2.64583,-2.70933 1.69334,-0.9525 3.81,-0.9525 1.8415,0 3.15384,0.59266 1.3335,0.5715 2.413,1.67217 0.14816,0.127 0.14816,0.29633 0,0.14817 -0.127,0.27517 l -1.397,1.397 q -0.127,0.127 -0.254,0.127 -0.14816,0 -0.27516,-0.14817 -1.56634,-1.67216 -3.66184,-1.67216 -1.35466,0 -2.413,0.67733 -1.05833,0.65617 -1.651,1.8415 -0.5715,1.16417 -0.5715,2.6035 0,1.43933 0.5715,2.62467 0.59267,1.16416 1.651,1.8415 1.05834,0.65616 2.413,0.65616 1.24884,0 2.07434,-0.40216 0.84666,-0.42334 1.43933,-1.2065 0.127,-0.16934 0.29633,-0.16934 0.127,0 0.254,0.127 l 1.397,1.143 q 0.1905,0.127 0.1905,0.29634 0,0.0635 -0.0635,0.16933 -0.9525,1.24883 -2.32833,1.92617 -1.35467,0.65616 -3.25967,0.65616 z"
         style="font-style:normal;font-variant:normal;font-weight:normal;font-stretch:normal;font-size:21.16666603px;font-family:'Equinor Beta';-inkscape-font-specification:'Equinor Beta';stroke-width:0.26458332"
         id="path6542"
         inkscape:connector-curvature="0" />
      <path
         d="m -201.46033,142.00557 q -1.10067,0 -2.032,-0.508 -0.91017,-0.52916 -1.4605,-1.56633 -0.52917,-1.03717 -0.52917,-2.4765 v -4.86833 q 0,-0.33867 0.3175,-0.46567 l 1.73567,-0.61383 q 0.127,-0.0423 0.14816,-0.0423 0.14817,0 0.21167,0.10584 0.0847,0.0847 0.0847,0.254 v 5.334 q 0,1.16416 0.61383,1.82033 0.635,0.635 1.69333,0.635 1.05834,0 1.7145,-0.65617 0.67734,-0.65616 0.67734,-1.79916 v -4.572 q 0,-0.33867 0.3175,-0.46567 l 1.73566,-0.61383 q 0.127,-0.0423 0.14817,-0.0423 0.14817,0 0.21167,0.10584 0.0847,0.0847 0.0847,0.254 v 9.54616 q 0,0.16933 -0.10583,0.27517 -0.10583,0.10583 -0.29633,0.10583 h -1.7145 q -0.16934,0 -0.27517,-0.10583 -0.10583,-0.10584 -0.10583,-0.27517 v -0.86783 q -0.52917,0.74083 -1.35467,1.12183 -0.80433,0.381 -1.82033,0.381 z"
         style="font-style:normal;font-variant:normal;font-weight:normal;font-stretch:normal;font-size:21.16666603px;font-family:'Equinor Beta';-inkscape-font-specification:'Equinor Beta';stroke-width:0.26458332"
         id="path6544"
         inkscape:connector-curvature="0" />
      <path
         d="m -189.68009,142.00557 q -1.29117,0 -2.3495,-0.35983 -1.05834,-0.381 -1.7145,-1.12183 -0.10584,-0.14817 -0.10584,-0.254 0,-0.14817 0.10584,-0.29634 l 0.80433,-1.0795 q 0.127,-0.16933 0.27517,-0.16933 0.14816,0 0.27516,0.127 1.2065,1.016 2.62467,1.016 1.62983,0 1.62983,-0.9525 0,-0.4445 -0.42333,-0.6985 -0.42333,-0.27517 -1.41817,-0.46567 -3.53483,-0.65616 -3.53483,-3.13266 0,-0.97367 0.48683,-1.7145 0.508,-0.74084 1.397,-1.143 0.889,-0.42334 1.98967,-0.42334 1.9685,0 3.2385,1.016 0.14817,0.127 0.14817,0.27517 0,0.10583 -0.10584,0.27517 l -0.889,1.12183 q -0.10583,0.16933 -0.27516,0.16933 -0.127,0 -0.27517,-0.0847 -0.381,-0.27517 -0.889,-0.42334 -0.48683,-0.16933 -1.016,-0.16933 -0.61383,0 -0.99483,0.23283 -0.35984,0.21167 -0.35984,0.59267 0,0.40217 0.42334,0.61383 0.42333,0.21167 1.41816,0.42334 1.778,0.35983 2.64584,1.12183 0.889,0.762 0.889,2.18017 0,1.62983 -1.143,2.4765 -1.143,0.84666 -2.8575,0.84666 z"
         style="font-style:normal;font-variant:normal;font-weight:normal;font-stretch:normal;font-size:21.16666603px;font-family:'Equinor Beta';-inkscape-font-specification:'Equinor Beta';stroke-width:0.26458332"
         id="path6546"
         inkscape:connector-curvature="0" />
      <path
         d="m -177.90878,141.09541 q 0.0212,0.0635 0.0212,0.16933 0,0.1905 -0.21167,0.3175 -0.4445,0.21166 -0.86783,0.3175 -0.40217,0.10583 -0.97367,0.10583 -1.651,0 -2.43417,-0.93133 -0.762,-0.93133 -0.762,-2.413 v -4.84717 h -1.12183 q -0.381,0 -0.381,-0.40216 v -1.43934 q 0,-0.381 0.381,-0.381 h 1.12183 v -1.37583 q 0,-0.3175 0.29634,-0.4445 l 1.73566,-0.635 0.16934,-0.0423 q 0.14816,0 0.21166,0.10583 0.0847,0.0847 0.0847,0.254 v 2.13783 h 1.75683 q 0.381,0 0.381,0.381 v 1.43934 q 0,0.40216 -0.381,0.40216 h -1.75683 v 4.46617 q 0,0.635 0.23283,0.97367 0.23284,0.33866 0.80434,0.33866 0.29633,0 0.74083,-0.16933 0.127,-0.0635 0.21167,-0.0635 0.21166,0 0.29633,0.27517 z"
         style="font-style:normal;font-variant:normal;font-weight:normal;font-stretch:normal;font-size:21.16666603px;font-family:'Equinor Beta';-inkscape-font-specification:'Equinor Beta';stroke-width:0.26458332"
         id="path6548"
         inkscape:connector-curvature="0" />
      <path
         d="m -171.31404,142.00557 q -1.56633,0 -2.794,-0.67733 -1.2065,-0.6985 -1.905,-1.905 -0.67733,-1.22767 -0.67733,-2.75167 0,-1.524 0.67733,-2.7305 0.6985,-1.22766 1.905,-1.905 1.22767,-0.6985 2.794,-0.6985 1.54517,0 2.77283,0.6985 1.22767,0.67734 1.905,1.905 0.67734,1.2065 0.67734,2.7305 0,1.524 -0.67734,2.75167 -0.67733,1.2065 -1.905,1.905 -1.22766,0.67733 -2.77283,0.67733 z m 0,-2.37066 q 1.29117,0 2.032,-0.8255 0.74083,-0.84667 0.74083,-2.13784 0,-1.29116 -0.74083,-2.11666 -0.74083,-0.84667 -2.032,-0.84667 -1.3335,0 -2.07433,0.84667 -0.74084,0.8255 -0.74084,2.11666 0,1.29117 0.74084,2.13784 0.74083,0.8255 2.07433,0.8255 z"
         style="font-style:normal;font-variant:normal;font-weight:normal;font-stretch:normal;font-size:21.16666603px;font-family:'Equinor Beta';-inkscape-font-specification:'Equinor Beta';stroke-width:0.26458332"
         id="path6550"
         inkscape:connector-curvature="0" />
      <path
         d="m -163.52901,141.75157 q -0.1905,0 -0.29633,-0.10583 -0.10583,-0.10584 -0.10583,-0.27517 v -8.78416 q 0,-0.33867 0.3175,-0.46567 l 1.73566,-0.61383 q 0.127,-0.0423 0.16934,-0.0423 0.127,0 0.1905,0.10584 0.0847,0.0847 0.0847,0.254 v 0.86783 q 0.33867,-0.55033 1.143,-0.9525 0.80434,-0.40217 1.7145,-0.40217 0.93134,0 1.651,0.4445 0.71967,0.42334 1.0795,1.143 0.48684,-0.78316 1.29117,-1.18533 0.8255,-0.40217 1.79917,-0.40217 1.016,0 1.86266,0.48684 0.84667,0.46566 1.35467,1.43933 0.52917,0.97367 0.52917,2.413 v 5.69383 q 0,0.16933 -0.10584,0.27517 -0.10583,0.10583 -0.29633,0.10583 h -1.7145 q -0.381,0 -0.381,-0.381 v -5.461 q 0,-1.05833 -0.48683,-1.60866 -0.46567,-0.5715 -1.31234,-0.5715 -0.86783,0 -1.397,0.5715 -0.52916,0.55033 -0.52916,1.60866 v 5.461 q 0,0.381 -0.381,0.381 h -1.7145 q -0.1905,0 -0.29634,-0.10583 -0.10583,-0.10584 -0.10583,-0.27517 v -5.461 q 0,-1.10066 -0.46567,-1.62983 -0.4445,-0.55033 -1.31233,-0.55033 -0.80433,0 -1.37583,0.59266 -0.55034,0.5715 -0.55034,1.5875 v 5.461 q 0,0.381 -0.381,0.381 z"
         style="font-style:normal;font-variant:normal;font-weight:normal;font-stretch:normal;font-size:21.16666603px;font-family:'Equinor Beta';-inkscape-font-specification:'Equinor Beta';stroke-width:0.26458332"
         id="path6552"
         inkscape:connector-curvature="0" />
      <path
         d="m -137.29624,142.00557 q -1.5875,0 -2.75166,-0.6985 -1.143,-0.71966 -1.75684,-1.94733 -0.61383,-1.22767 -0.61383,-2.75167 0,-1.48166 0.67733,-2.68816 0.67734,-1.2065 1.86267,-1.88384 1.2065,-0.6985 2.68817,-0.6985 0.97366,0 1.778,0.35984 0.8255,0.33866 1.22766,1.016 v -0.127 q 0,-0.33867 0.3175,-0.46567 l 1.73567,-0.61383 0.16933,-0.0423 q 0.27517,0 0.27517,0.33867 v 9.56733 q 0,0.16933 -0.10583,0.27517 -0.10584,0.10583 -0.29634,0.10583 h -1.7145 q -0.16933,0 -0.27516,-0.10583 -0.10584,-0.10584 -0.10584,-0.27517 v -0.55033 q -0.381,0.48683 -1.24883,0.84666 -0.84667,0.33867 -1.86267,0.33867 z m 0.29634,-2.3495 q 1.24883,0 2.032,-0.80433 0.80433,-0.80433 0.80433,-2.26483 0,-1.35467 -0.80433,-2.13784 -0.78317,-0.80433 -2.032,-0.80433 -1.24884,0 -2.05317,0.80433 -0.80433,0.78317 -0.80433,2.13784 0,1.4605 0.78316,2.26483 0.80434,0.80433 2.07434,0.80433 z"
         style="font-style:normal;font-variant:normal;font-weight:normal;font-stretch:normal;font-size:21.16666603px;font-family:'Equinor Beta';-inkscape-font-specification:'Equinor Beta';stroke-width:0.26458332"
         id="path6554"
         inkscape:connector-curvature="0" />
      <path
         d="m -125.60132,142.00557 q -1.29117,0 -2.3495,-0.35983 -1.05833,-0.381 -1.7145,-1.12183 -0.10583,-0.14817 -0.10583,-0.254 0,-0.14817 0.10583,-0.29634 l 0.80433,-1.0795 q 0.127,-0.16933 0.27517,-0.16933 0.14817,0 0.27517,0.127 1.2065,1.016 2.62466,1.016 1.62984,0 1.62984,-0.9525 0,-0.4445 -0.42334,-0.6985 -0.42333,-0.27517 -1.41816,-0.46567 -3.53484,-0.65616 -3.53484,-3.13266 0,-0.97367 0.48684,-1.7145 0.508,-0.74084 1.397,-1.143 0.889,-0.42334 1.98966,-0.42334 1.9685,0 3.2385,1.016 0.14817,0.127 0.14817,0.27517 0,0.10583 -0.10583,0.27517 l -0.889,1.12183 q -0.10584,0.16933 -0.27517,0.16933 -0.127,0 -0.27517,-0.0847 -0.381,-0.27517 -0.889,-0.42334 -0.48683,-0.16933 -1.016,-0.16933 -0.61383,0 -0.99483,0.23283 -0.35983,0.21167 -0.35983,0.59267 0,0.40217 0.42333,0.61383 0.42333,0.21167 1.41817,0.42334 1.778,0.35983 2.64583,1.12183 0.889,0.762 0.889,2.18017 0,1.62983 -1.143,2.4765 -1.143,0.84666 -2.8575,0.84666 z"
         style="font-style:normal;font-variant:normal;font-weight:normal;font-stretch:normal;font-size:21.16666603px;font-family:'Equinor Beta';-inkscape-font-specification:'Equinor Beta';stroke-width:0.26458332"
         id="path6556"
         inkscape:connector-curvature="0" />
      <path
         d="m -115.88615,142.00557 q -1.29117,0 -2.3495,-0.35983 -1.05833,-0.381 -1.7145,-1.12183 -0.10583,-0.14817 -0.10583,-0.254 0,-0.14817 0.10583,-0.29634 l 0.80433,-1.0795 q 0.127,-0.16933 0.27517,-0.16933 0.14817,0 0.27517,0.127 1.2065,1.016 2.62466,1.016 1.62984,0 1.62984,-0.9525 0,-0.4445 -0.42334,-0.6985 -0.42333,-0.27517 -1.41816,-0.46567 -3.53484,-0.65616 -3.53484,-3.13266 0,-0.97367 0.48684,-1.7145 0.508,-0.74084 1.397,-1.143 0.889,-0.42334 1.98966,-0.42334 1.9685,0 3.2385,1.016 0.14817,0.127 0.14817,0.27517 0,0.10583 -0.10583,0.27517 l -0.889,1.12183 q -0.10584,0.16933 -0.27517,0.16933 -0.127,0 -0.27517,-0.0847 -0.381,-0.27517 -0.889,-0.42334 -0.48683,-0.16933 -1.016,-0.16933 -0.61383,0 -0.99483,0.23283 -0.35983,0.21167 -0.35983,0.59267 0,0.40217 0.42333,0.61383 0.42333,0.21167 1.41817,0.42334 1.778,0.35983 2.64583,1.12183 0.889,0.762 0.889,2.18017 0,1.62983 -1.143,2.4765 -1.143,0.84666 -2.8575,0.84666 z"
         style="font-style:normal;font-variant:normal;font-weight:normal;font-stretch:normal;font-size:21.16666603px;font-family:'Equinor Beta';-inkscape-font-specification:'Equinor Beta';stroke-width:0.26458332"
         id="path6558"
         inkscape:connector-curvature="0" />
      <path
         d="m -104.96448,131.33757 q 1.43934,0 2.51884,0.67734 1.0795,0.65616 1.651,1.778 0.59266,1.10066 0.59266,2.37066 v 0.889 q 0,0.381 -0.40216,0.381 h -7.15434 q 0.21167,1.016 0.97367,1.651 0.78317,0.635 1.98967,0.635 1.48166,0 2.8575,-0.86783 0.127,-0.0635 0.23283,-0.0635 0.21167,0 0.29633,0.21167 l 0.67734,1.22766 q 0.0635,0.127 0.0635,0.254 0,0.14817 -0.127,0.254 -1.67217,1.27 -4.02167,1.27 -1.651,0 -2.87867,-0.67733 -1.22766,-0.67733 -1.88383,-1.86267 -0.635,-1.2065 -0.635,-2.7305 0,-1.60866 0.6985,-2.83633 0.6985,-1.22767 1.88383,-1.88383 1.2065,-0.67734 2.667,-0.67734 z m 2.413,4.2545 q -0.127,-0.84666 -0.74083,-1.397 -0.61383,-0.5715 -1.67217,-0.5715 -1.03716,0 -1.75683,0.52917 -0.71967,0.508 -0.97367,1.43933 z"
         style="font-style:normal;font-variant:normal;font-weight:normal;font-stretch:normal;font-size:21.16666603px;font-family:'Equinor Beta';-inkscape-font-specification:'Equinor Beta';stroke-width:0.26458332"
         id="path6560"
         inkscape:connector-curvature="0" />
      <path
         d="m -92.167249,141.09541 q 0.02117,0.0635 0.02117,0.16933 0,0.1905 -0.211667,0.3175 -0.4445,0.21166 -0.867833,0.3175 -0.402167,0.10583 -0.973667,0.10583 -1.650999,0 -2.434166,-0.93133 -0.762,-0.93133 -0.762,-2.413 v -4.84717 h -1.121833 q -0.381,0 -0.381,-0.40216 v -1.43934 q 0,-0.381 0.381,-0.381 h 1.121833 v -1.37583 q 0,-0.3175 0.296333,-0.4445 l 1.735667,-0.635 0.169333,-0.0423 q 0.148167,0 0.211667,0.10583 0.08467,0.0847 0.08467,0.254 v 2.13783 h 1.756834 q 0.381,0 0.381,0.381 v 1.43934 q 0,0.40216 -0.381,0.40216 h -1.756834 v 4.46617 q 0,0.635 0.232834,0.97367 0.232833,0.33866 0.804333,0.33866 0.296333,0 0.740833,-0.16933 0.127,-0.0635 0.211667,-0.0635 0.211667,0 0.296333,0.27517 z"
         style="font-style:normal;font-variant:normal;font-weight:normal;font-stretch:normal;font-size:21.16666603px;font-family:'Equinor Beta';-inkscape-font-specification:'Equinor Beta';stroke-width:0.26458332"
         id="path6562"
         inkscape:connector-curvature="0" />
      <path
         d="m -85.311569,145.9849 q -0.1905,0 -0.296333,-0.10583 -0.105833,-0.10583 -0.105833,-0.27517 v -13.01749 q 0,-0.33867 0.3175,-0.46567 l 1.735666,-0.61383 0.169334,-0.0423 q 0.275166,0 0.275166,0.33867 v 0.889 q 0.4445,-0.59267 1.312334,-0.97367 0.867833,-0.381 1.926166,-0.381 1.439334,0 2.582333,0.65617 1.143,0.65617 1.778,1.86267 0.656167,1.2065 0.656167,2.81516 0,1.4605 -0.613833,2.68817 -0.592667,1.2065 -1.735667,1.92617 -1.121833,0.71966 -2.667,0.71966 -1.058333,0 -1.926166,-0.381 -0.867834,-0.381 -1.312334,-0.9525 v 4.93183 q 0,0.381 -0.381,0.381 z m 4.931834,-6.28649 q 1.248833,0 2.053166,-0.80434 0.804333,-0.80433 0.804333,-2.2225 0,-1.43933 -0.804333,-2.2225 -0.804333,-0.80433 -2.053166,-0.80433 -1.248834,0 -2.053167,0.80433 -0.783167,0.78317 -0.783167,2.2225 0,1.43934 0.783167,2.24367 0.804333,0.78317 2.053167,0.78317 z"
         style="font-style:normal;font-variant:normal;font-weight:normal;font-stretch:normal;font-size:21.16666603px;font-family:'Equinor Beta';-inkscape-font-specification:'Equinor Beta';stroke-width:0.26458332"
         id="path6564"
         inkscape:connector-curvature="0" />
      <path
         d="m -72.537155,141.75157 q -0.1905,0 -0.296333,-0.10583 -0.105833,-0.10584 -0.105833,-0.27517 v -13.48316 q 0,-0.3175 0.3175,-0.4445 l 1.735666,-0.59267 q 0.127,-0.0423 0.169334,-0.0423 0.127,0 0.1905,0.10583 0.08467,0.0847 0.08467,0.254 v 14.20283 q 0,0.381 -0.381,0.381 z"
         style="font-style:normal;font-variant:normal;font-weight:normal;font-stretch:normal;font-size:21.16666603px;font-family:'Equinor Beta';-inkscape-font-specification:'Equinor Beta';stroke-width:0.26458332"
         id="path6566"
         inkscape:connector-curvature="0" />
      <path
         d="m -64.249077,142.00557 q -1.100666,0 -2.032,-0.508 -0.910166,-0.52916 -1.4605,-1.56633 -0.529166,-1.03717 -0.529166,-2.4765 v -4.86833 q 0,-0.33867 0.3175,-0.46567 l 1.735666,-0.61383 q 0.127,-0.0423 0.148167,-0.0423 0.148167,0 0.211667,0.10584 0.08467,0.0847 0.08467,0.254 v 5.334 q 0,1.16416 0.613834,1.82033 0.635,0.635 1.693333,0.635 1.058333,0 1.7145,-0.65617 0.677333,-0.65616 0.677333,-1.79916 v -4.572 q 0,-0.33867 0.3175,-0.46567 l 1.735667,-0.61383 q 0.127,-0.0423 0.148167,-0.0423 0.148166,0 0.211666,0.10584 0.08467,0.0847 0.08467,0.254 v 9.54616 q 0,0.16933 -0.105833,0.27517 -0.105834,0.10583 -0.296334,0.10583 h -1.7145 q -0.169333,0 -0.275166,-0.10583 -0.105834,-0.10584 -0.105834,-0.27517 v -0.86783 q -0.529166,0.74083 -1.354666,1.12183 -0.804334,0.381 -1.820334,0.381 z"
         style="font-style:normal;font-variant:normal;font-weight:normal;font-stretch:normal;font-size:21.16666603px;font-family:'Equinor Beta';-inkscape-font-specification:'Equinor Beta';stroke-width:0.26458332"
         id="path6568"
         inkscape:connector-curvature="0" />
      <path
         d="m -51.368163,146.2389 q -1.312333,0 -2.413,-0.33866 -1.0795,-0.33867 -2.116666,-1.0795 -0.169334,-0.10584 -0.169334,-0.3175 0,-0.10584 0.0635,-0.21167 l 0.783167,-1.41817 q 0.105833,-0.21166 0.296333,-0.21166 0.127,0 0.254,0.127 1.502834,1.143 3.175,1.143 1.502834,0 2.3495,-0.8255 0.867834,-0.80434 0.867834,-2.159 v -0.27517 q -0.381,0.46567 -1.248834,0.8255 -0.846666,0.33867 -1.862666,0.33867 -1.5875,0 -2.751667,-0.6985 -1.143,-0.6985 -1.756833,-1.88383 -0.613834,-1.18534 -0.613834,-2.64584 0,-1.48166 0.677334,-2.68816 0.677333,-1.2065 1.862666,-1.88384 1.2065,-0.6985 2.688167,-0.6985 0.973667,0 1.778,0.35984 0.8255,0.33866 1.227667,1.016 v -0.127 q 0,-0.33867 0.317499,-0.46567 l 1.735667,-0.61383 0.169333,-0.0423 q 0.275167,0 0.275167,0.33867 v 8.91117 q 0,2.60349 -1.524,4.06399 -1.502833,1.4605 -4.064,1.4605 z m 0.275167,-6.73099 q 1.248833,0 2.032,-0.78317 0.804333,-0.78317 0.804333,-2.13783 0,-1.35467 -0.804333,-2.13784 -0.783167,-0.80433 -2.032,-0.80433 -1.248833,0 -2.053167,0.80433 -0.804333,0.78317 -0.804333,2.13784 0,1.35466 0.804333,2.13783 0.804334,0.78317 2.053167,0.78317 z"
         style="font-style:normal;font-variant:normal;font-weight:normal;font-stretch:normal;font-size:21.16666603px;font-family:'Equinor Beta';-inkscape-font-specification:'Equinor Beta';stroke-width:0.26458332"
         id="path6570"
         inkscape:connector-curvature="0" />
      <path
         d="m -43.038749,130.87191 q -0.0635,0.0212 -0.148166,0.0212 -0.148167,0 -0.232834,-0.0847 -0.08467,-0.10584 -0.08467,-0.254 v -1.88384 q 0,-0.3175 0.3175,-0.4445 l 1.926166,-0.67733 q 0.127,-0.0423 0.169334,-0.0423 0.127,0 0.1905,0.10583 0.08467,0.0847 0.08467,0.254 v 1.92617 q 0,0.33866 -0.3175,0.4445 z m 0.02117,10.87966 q -0.169333,0 -0.275167,-0.10583 -0.105833,-0.10584 -0.105833,-0.27517 v -8.8265 q 0,-0.3175 0.3175,-0.4445 l 1.735667,-0.59266 q 0.127,-0.0423 0.148166,-0.0423 0.148167,0 0.211667,0.10584 0.08467,0.0847 0.08467,0.254 v 9.54616 q 0,0.16933 -0.105834,0.27517 -0.105833,0.10583 -0.296333,0.10583 z"
         style="font-style:normal;font-variant:normal;font-weight:normal;font-stretch:normal;font-size:21.16666603px;font-family:'Equinor Beta';-inkscape-font-specification:'Equinor Beta';stroke-width:0.26458332"
         id="path6572"
         inkscape:connector-curvature="0" />
      <path
         d="m -38.141311,141.75157 q -0.1905,0 -0.296333,-0.10583 -0.105834,-0.10584 -0.105834,-0.27517 v -8.84766 q 0,-0.33867 0.3175,-0.42334 l 1.735667,-0.59266 q 0.0635,-0.0212 0.148167,-0.0212 0.296333,0 0.296333,0.33867 v 1.016 q 0.529167,-0.74084 1.3335,-1.12184 0.8255,-0.381 1.8415,-0.381 1.100666,0 2.010833,0.52917 0.931333,0.508 1.4605,1.54517 0.550333,1.03716 0.550333,2.4765 v 5.48216 q 0,0.381 -0.381,0.381 h -1.7145 q -0.1905,0 -0.296333,-0.10583 -0.105833,-0.10584 -0.105833,-0.27517 v -5.18583 q 0,-1.16417 -0.613834,-1.79917 -0.613833,-0.65616 -1.672166,-0.65616 -1.0795,0 -1.756833,0.65616 -0.656167,0.65617 -0.656167,1.79917 v 5.18583 q 0,0.381 -0.381,0.381 z"
         style="font-style:normal;font-variant:normal;font-weight:normal;font-stretch:normal;font-size:21.16666603px;font-family:'Equinor Beta';-inkscape-font-specification:'Equinor Beta';stroke-width:0.26458332"
         id="path6574"
         inkscape:connector-curvature="0" />
      <path
         d="m -22.868579,142.00557 q -1.291167,0 -2.3495,-0.35983 -1.058333,-0.381 -1.7145,-1.12183 -0.105833,-0.14817 -0.105833,-0.254 0,-0.14817 0.105833,-0.29634 l 0.804333,-1.0795 q 0.127,-0.16933 0.275167,-0.16933 0.148167,0 0.275167,0.127 1.2065,1.016 2.624666,1.016 1.629833,0 1.629833,-0.9525 0,-0.4445 -0.423333,-0.6985 -0.423333,-0.27517 -1.418166,-0.46567 -3.534834,-0.65616 -3.534834,-3.13266 0,-0.97367 0.486834,-1.7145 0.508,-0.74084 1.397,-1.143 0.889,-0.42334 1.989666,-0.42334 1.9685,0 3.2385,1.016 0.148167,0.127 0.148167,0.27517 0,0.10583 -0.105834,0.27517 l -0.889,1.12183 q -0.105833,0.16933 -0.275166,0.16933 -0.127,0 -0.275167,-0.0847 -0.381,-0.27517 -0.889,-0.42334 -0.486833,-0.16933 -1.016,-0.16933 -0.613833,0 -0.994833,0.23283 -0.359833,0.21167 -0.359833,0.59267 0,0.40217 0.423333,0.61383 0.423333,0.21167 1.418167,0.42334 1.777999,0.35983 2.645833,1.12183 0.889,0.762 0.889,2.18017 0,1.62983 -1.143,2.4765 -1.143,0.84666 -2.8575,0.84666 z"
         style="font-style:normal;font-variant:normal;font-weight:normal;font-stretch:normal;font-size:21.16666603px;font-family:'Equinor Beta';-inkscape-font-specification:'Equinor Beta';stroke-width:0.26458332"
         id="path6576"
         inkscape:connector-curvature="0" />
    </g>
    <g
       aria-label="Webviz-4D"
       style="font-style:normal;font-variant:normal;font-weight:normal;font-stretch:normal;font-size:21.16666603px;line-height:1.25;font-family:'Equinor Beta';-inkscape-font-specification:'Equinor Beta';letter-spacing:0px;word-spacing:0px;fill:#000000;fill-opacity:1;stroke:none;stroke-width:0.26458332"
       id="text1227-13">
      <path
         d="m -98.227146,176.82777 q 0.211666,0 0.296333,0.127 0.08467,0.127 0.02117,0.3175 l -4.233337,14.05467 q -0.0847,0.3175 -0.42333,0.3175 h -1.60867 q -0.33867,0 -0.4445,-0.3175 l -3.3655,-10.414 -3.3655,10.414 q -0.10583,0.3175 -0.4445,0.3175 h -1.60867 q -0.33866,0 -0.42333,-0.3175 l -4.23333,-14.05467 q -0.0212,-0.0423 -0.0212,-0.14816 0,-0.127 0.0847,-0.21167 0.10583,-0.0847 0.254,-0.0847 h 2.13783 q 0.381,0 0.46567,0.33867 l 2.667,9.16517 2.921,-9.16517 q 0.10583,-0.33867 0.42333,-0.33867 h 2.286 q 0.3175,0 0.42333,0.33867 l 2.921,9.16517 2.667,-9.16517 q 0.0847,-0.33867 0.46567,-0.33867 z"
         style="font-style:normal;font-variant:normal;font-weight:normal;font-stretch:normal;font-size:21.16666603px;font-family:'Equinor Beta';-inkscape-font-specification:'Equinor Beta';stroke-width:0.26458332"
         id="path6523"
         inkscape:connector-curvature="0" />
      <path
         d="m -92.609381,181.23044 q 1.439333,0 2.518833,0.67733 1.0795,0.65617 1.651,1.778 0.592667,1.10067 0.592667,2.37067 v 0.889 q 0,0.381 -0.402167,0.381 h -7.154333 q 0.211667,1.016 0.973667,1.651 0.783166,0.635 1.989666,0.635 1.481667,0 2.8575,-0.86783 0.127,-0.0635 0.232834,-0.0635 0.211666,0 0.296333,0.21166 l 0.677333,1.22767 q 0.0635,0.127 0.0635,0.254 0,0.14817 -0.127,0.254 -1.672166,1.27 -4.021666,1.27 -1.651,0 -2.878667,-0.67733 -1.227667,-0.67734 -1.883833,-1.86267 -0.635,-1.2065 -0.635,-2.7305 0,-1.60867 0.6985,-2.83633 0.6985,-1.22767 1.883833,-1.88384 1.2065,-0.67733 2.667,-0.67733 z m 2.413,4.2545 q -0.127,-0.84667 -0.740833,-1.397 -0.613834,-0.5715 -1.672167,-0.5715 -1.037167,0 -1.756833,0.52917 -0.719667,0.508 -0.973667,1.43933 z"
         style="font-style:normal;font-variant:normal;font-weight:normal;font-stretch:normal;font-size:21.16666603px;font-family:'Equinor Beta';-inkscape-font-specification:'Equinor Beta';stroke-width:0.26458332"
         id="path6525"
         inkscape:connector-curvature="0" />
      <path
         d="m -80.066146,191.89844 q -1.058333,0 -1.926167,-0.381 -0.867833,-0.381 -1.312333,-0.9525 v 0.6985 q 0,0.381 -0.381,0.381 h -1.7145 q -0.1905,0 -0.296333,-0.10583 -0.105834,-0.10584 -0.105834,-0.27517 v -13.462 q 0,-0.3175 0.3175,-0.4445 l 1.735667,-0.61383 0.169333,-0.0423 q 0.275167,0 0.275167,0.33867 v 5.54567 q 0.4445,-0.59267 1.312333,-0.97367 0.867834,-0.381 1.926167,-0.381 1.439333,0 2.582333,0.65617 1.143,0.65616 1.778,1.86266 0.656167,1.2065 0.656167,2.81517 0,1.4605 -0.613834,2.68817 -0.592666,1.2065 -1.735666,1.92616 -1.121833,0.71967 -2.667,0.71967 z m -0.402167,-2.30717 q 1.248834,0 2.053167,-0.80433 0.804333,-0.80433 0.804333,-2.2225 0,-1.43933 -0.804333,-2.2225 -0.804333,-0.80433 -2.053167,-0.80433 -1.248833,0 -2.053166,0.80433 -0.783167,0.78317 -0.783167,2.2225 0,1.43933 0.783167,2.24367 0.804333,0.78316 2.053166,0.78316 z"
         style="font-style:normal;font-variant:normal;font-weight:normal;font-stretch:normal;font-size:21.16666603px;font-family:'Equinor Beta';-inkscape-font-specification:'Equinor Beta';stroke-width:0.26458332"
         id="path6527"
         inkscape:connector-curvature="0" />
      <path
         d="m -69.777492,191.64444 q -0.3175,0 -0.4445,-0.29633 l -3.937,-9.41917 -0.04233,-0.16933 q 0,-0.27517 0.338667,-0.27517 h 1.905 q 0.338667,0 0.465667,0.3175 l 2.307166,5.79967 2.328334,-5.79967 q 0.127,-0.3175 0.4445,-0.3175 h 1.905 q 0.338666,0 0.338666,0.254 0,0.0635 -0.04233,0.1905 l -3.915833,9.41917 q -0.127,0.29633 -0.465667,0.29633 z"
         style="font-style:normal;font-variant:normal;font-weight:normal;font-stretch:normal;font-size:21.16666603px;font-family:'Equinor Beta';-inkscape-font-specification:'Equinor Beta';stroke-width:0.26458332"
         id="path6529"
         inkscape:connector-curvature="0" />
      <path
         d="m -62.102923,180.76477 q -0.0635,0.0212 -0.148167,0.0212 -0.148167,0 -0.232833,-0.0847 -0.08467,-0.10583 -0.08467,-0.254 v -1.88383 q 0,-0.3175 0.3175,-0.4445 l 1.926167,-0.67733 q 0.127,-0.0423 0.169333,-0.0423 0.127,0 0.1905,0.10584 0.08467,0.0847 0.08467,0.254 v 1.92616 q 0,0.33867 -0.3175,0.4445 z m 0.02117,10.87967 q -0.169333,0 -0.275166,-0.10583 -0.105834,-0.10584 -0.105834,-0.27517 v -8.8265 q 0,-0.3175 0.3175,-0.4445 l 1.735667,-0.59267 q 0.127,-0.0423 0.148167,-0.0423 0.148166,0 0.211666,0.10583 0.08467,0.0847 0.08467,0.254 v 9.54617 q 0,0.16933 -0.105833,0.27517 -0.105834,0.10583 -0.296334,0.10583 z"
         style="font-style:normal;font-variant:normal;font-weight:normal;font-stretch:normal;font-size:21.16666603px;font-family:'Equinor Beta';-inkscape-font-specification:'Equinor Beta';stroke-width:0.26458332"
         id="path6531"
         inkscape:connector-curvature="0" />
      <path
         d="m -57.734652,191.64444 q -0.1905,0 -0.296334,-0.10583 -0.105833,-0.10584 -0.105833,-0.27517 v -1.18533 q 0,-0.29634 0.169333,-0.48684 l 4.402667,-5.86316 h -3.725333 q -0.381,0 -0.381,-0.381 v -1.48167 q 0,-0.16933 0.105833,-0.27517 0.105833,-0.10583 0.275167,-0.10583 h 6.625166 q 0.381,0 0.381,0.381 v 1.18533 q 0,0.27517 -0.148167,0.48684 l -4.444999,5.86316 h 4.614333 q 0.402166,0 0.402166,0.381 v 1.48167 q 0,0.16933 -0.105833,0.27517 -0.105833,0.10583 -0.296333,0.10583 z"
         style="font-style:normal;font-variant:normal;font-weight:normal;font-stretch:normal;font-size:21.16666603px;font-family:'Equinor Beta';-inkscape-font-specification:'Equinor Beta';stroke-width:0.26458332"
         id="path6533"
         inkscape:connector-curvature="0" />
      <path
         d="m -47.509497,186.33161 q -0.169334,0 -0.275167,-0.10584 -0.105833,-0.10583 -0.105833,-0.27516 v -1.73567 q 0,-0.16933 0.105833,-0.27517 0.105833,-0.10583 0.275167,-0.10583 h 5.736166 q 0.1905,0 0.296333,0.10583 0.105834,0.10584 0.105834,0.27517 v 1.73567 q 0,0.16933 -0.105834,0.27516 -0.105833,0.10584 -0.296333,0.10584 z"
         style="font-style:normal;font-variant:normal;font-weight:normal;font-stretch:normal;font-size:21.16666603px;font-family:'Equinor Beta';-inkscape-font-specification:'Equinor Beta';stroke-width:0.26458332"
         id="path6535"
         inkscape:connector-curvature="0" />
      <path
         d="m -32.357807,191.64444 q -0.1905,0 -0.296334,-0.10583 -0.105833,-0.10584 -0.105833,-0.27517 v -2.794 h -6.307667 q -0.381,0 -0.381,-0.381 v -1.37583 q 0,-0.27517 0.148167,-0.48684 l 6.6675,-9.16516 q 0.169333,-0.23284 0.465667,-0.23284 h 1.756833 q 0.381,0 0.381,0.381 v 8.763 h 1.862666 q 0.338667,0 0.338667,0.27517 l -0.04233,0.16933 -0.635,1.73567 q -0.08467,0.3175 -0.4445,0.3175 h -1.0795 v 2.794 q 0,0.381 -0.381,0.381 z m -0.402167,-5.67267 v -5.03766 l -3.661833,5.03766 z"
         style="font-style:normal;font-variant:normal;font-weight:normal;font-stretch:normal;font-size:21.16666603px;font-family:'Equinor Beta';-inkscape-font-specification:'Equinor Beta';stroke-width:0.26458332"
         id="path6537"
         inkscape:connector-curvature="0" />
      <path
         d="m -25.326503,191.64444 q -0.1905,0 -0.296333,-0.10583 -0.105833,-0.10584 -0.105833,-0.27517 v -14.05467 q 0,-0.16933 0.105833,-0.27516 0.105833,-0.10584 0.296333,-0.10584 h 4.868334 q 1.9685,0 3.513666,0.889 1.566333,0.889 2.455333,2.56117 0.889,1.67217 0.889,3.95817 0,2.286 -0.889,3.95816 -0.889,1.67217 -2.455333,2.56117 -1.545166,0.889 -3.513666,0.889 z m 4.677834,-2.49767 q 1.905,0 3.090333,-1.22766 1.185333,-1.22767 1.185333,-3.683 0,-2.45534 -1.185333,-3.683 -1.185333,-1.22767 -3.090333,-1.22767 h -2.3495 v 9.82133 z"
         style="font-style:normal;font-variant:normal;font-weight:normal;font-stretch:normal;font-size:21.16666603px;font-family:'Equinor Beta';-inkscape-font-specification:'Equinor Beta';stroke-width:0.26458332"
         id="path6539"
         inkscape:connector-curvature="0" />
    </g>
  </g>
</svg>
